<svg width="1360" height="363" viewBox="0 0 1360 363" fill="none" xmlns="http://www.w3.org/2000/svg" class="animation-unit sticker-group absolute top-0 max-w-[1176px] max-sm:max-w-[364.41px] max-h-[40vh]" xmlns:xlink="http://www.w3.org/1999/xlink"><g filter="url(#filter0_ddddd_14239_16561)"><path d="M870.566 48.6616C869.993 48.09 869.378 47.5606 868.764 47.0313C868.149 46.5019 867.555 45.9303 866.941 45.401C866.326 44.8717 865.753 44.2999 865.139 43.7494L863.315 42.119C862.743 41.5474 862.128 41.0181 861.513 40.4888C860.899 39.9594 860.305 39.3877 859.69 38.8584C859.076 38.3291 858.503 37.7574 857.888 37.2069C857.274 36.6564 856.68 36.1059 856.065 35.5766C855.45 35.0472 854.878 34.4755 854.263 33.9462C853.648 33.4168 853.055 32.8452 852.44 32.2947C851.825 31.7442 851.253 31.2148 850.638 30.6643C850.023 30.1138 849.43 29.5633 848.815 29.034C848.2 28.5046 847.628 27.933 847.013 27.4037C846.398 26.8744 845.805 26.3026 845.19 25.7521C844.575 25.2016 844.003 24.6511 843.388 24.1217C842.773 23.5924 842.18 23.0208 841.565 22.4915C840.95 21.9621 840.378 21.3904 839.763 20.8399C839.148 20.2894 838.554 19.7601 837.94 19.2096C837.325 18.6591 836.752 18.1086 836.138 17.5793C835.523 17.0499 834.929 16.4782 834.315 15.9277C831.619 13.2629 828.574 10.9765 825.262 9.13113C818.797 5.64368 811.51 3.96127 804.169 4.26117L803.618 3.77422C803.003 3.24489 802.473 2.63081 801.795 2.14383C801.116 1.65685 800.65 1.00055 799.993 0.492386C799.335 -0.0157776 798.848 -0.651016 798.169 -1.138C797.491 -1.62498 797.173 -2.1543 796.601 -2.57777C807.92 0.713394 819.736 1.96803 831.495 1.12756C842.879 0.280624 851.825 -2.53542 858.842 -7.4688C868.382 -14.2019 873.682 -25.212 872.262 -35.481C871.096 -42.74 867.236 -49.2942 861.45 -53.8382C860.877 -54.3887 860.284 -54.9393 859.648 -55.4686C859.012 -55.998 858.461 -56.5909 857.825 -57.099C857.189 -57.6072 856.659 -58.2211 856.023 -58.7505C855.387 -59.2798 854.857 -59.8515 854.221 -60.3808C853.585 -60.9102 853.034 -61.4819 852.398 -62.0112C851.762 -62.5406 851.21 -63.1333 850.574 -63.6415C849.939 -64.1497 849.409 -64.7637 848.773 -65.2931C848.137 -65.8224 847.607 -66.3941 846.971 -66.9235C846.335 -67.4528 845.783 -68.0455 845.147 -68.5537C844.511 -69.0619 843.982 -69.676 843.324 -70.2053C842.667 -70.7346 842.158 -71.3062 841.522 -71.8355C840.886 -72.3649 840.356 -72.9578 839.72 -73.4659C839.084 -73.9741 838.533 -74.5882 837.897 -75.0963C837.261 -75.6045 836.731 -76.2184 836.095 -76.7478C835.459 -77.2771 834.908 -77.8488 834.272 -78.3782C833.636 -78.9075 833.106 -79.5004 832.47 -80.0085C831.834 -80.5167 831.283 -81.1307 830.647 -81.66C830.011 -82.1893 829.481 -82.761 828.845 -83.2904C828.209 -83.8197 827.658 -84.4126 827.022 -84.9208C826.386 -85.4289 825.856 -86.0429 825.22 -86.5722C822.895 -88.7729 820.285 -90.6529 817.461 -92.162C809.741 -95.9401 801.232 -97.8271 792.636 -97.667C777.179 -97.8426 761.863 -94.7168 747.715 -88.4991L746.782 -89.2825C736.889 -98.0421 725.944 -105.539 714.198 -111.599C701.595 -118.028 687.492 -120.953 673.368 -120.068C667.448 -119.54 661.643 -118.112 656.154 -115.834C655.645 -116.321 655.115 -116.765 654.585 -117.21C654.055 -117.655 653.398 -118.311 652.783 -118.84C652.168 -119.37 651.575 -119.963 650.96 -120.492C650.345 -121.021 649.773 -121.593 649.158 -122.122C648.543 -122.651 647.95 -123.223 647.335 -123.753C646.72 -124.282 646.148 -124.854 645.533 -125.404C644.918 -125.955 644.325 -126.505 643.71 -127.034C643.095 -127.564 642.523 -128.135 641.908 -128.665C641.293 -129.194 640.7 -129.766 640.085 -130.295C639.47 -130.824 638.898 -131.417 638.283 -131.947C637.668 -132.476 637.074 -133.048 636.46 -133.577C635.845 -134.106 635.273 -134.678 634.658 -135.207C634.043 -135.737 633.449 -136.308 632.835 -136.859C632.22 -137.409 631.647 -137.96 631.033 -138.489C630.418 -139.019 629.824 -139.59 629.209 -140.12C628.595 -140.649 628.022 -141.221 627.407 -141.771C626.793 -142.322 626.199 -142.872 625.584 -143.401C624.97 -143.931 624.397 -144.502 623.782 -145.032C623.168 -145.561 622.574 -146.133 621.959 -146.662C621.344 -147.191 620.772 -147.784 620.157 -148.314C616.417 -152.194 611.655 -154.939 606.42 -156.232C593.7 -159.302 579.793 -153.099 567.498 -138.786C541.719 -108.783 531.459 -70.417 523.551 -33.3849C504.976 -21.6033 484.934 -12.3066 463.938 -5.73257C462.303 -5.22662 460.894 -4.16835 459.954 -2.73904C459.015 -1.30975 458.602 0.401596 458.787 2.10158C458.913 3.19949 459.288 4.2543 459.883 5.18608C460.478 6.11784 461.278 6.90208 462.221 7.47955C462.729 8.12486 463.346 8.67664 464.044 9.10994C464.544 9.75487 465.154 10.3068 465.846 10.7403C466.354 11.392 466.97 11.9508 467.669 12.3918C468.175 13.0313 468.784 13.5823 469.471 14.0222C469.979 14.6675 470.596 15.2191 471.294 15.6524C471.794 16.3037 472.404 16.8627 473.096 17.304C473.61 17.9439 474.226 18.4948 474.92 18.9344C475.42 19.5793 476.03 20.1311 476.721 20.5646C477.23 21.2099 477.847 21.7617 478.545 22.195C479.044 22.8463 479.654 23.4052 480.347 23.8465C480.86 24.4864 481.476 25.0373 482.17 25.4769C482.67 26.1218 483.28 26.6737 483.972 27.1072C484.479 27.7589 485.096 28.3177 485.795 28.7587C486.301 29.3982 486.91 29.9492 487.597 30.3891C488.105 31.0344 488.722 31.5862 489.42 32.0195C489.925 32.6655 490.534 33.2234 491.222 33.6709C491.733 34.3056 492.341 34.8558 493.024 35.3013C493.537 35.9418 494.153 36.4928 494.847 36.9317C495.347 37.5766 495.957 38.1284 496.649 38.5619C497.162 39.2089 497.778 39.767 498.472 40.2135C499.077 41.0079 499.839 41.6696 500.71 42.1577C501.582 42.6457 502.545 42.9497 503.539 43.0507C504.09 43.0507 504.684 43.0507 505.235 43.0507C504.79 44.4058 504.387 45.782 503.92 47.1371C476.514 52.4507 450.521 63.4195 427.602 79.3417C405.788 94.8194 395.612 114.214 400.382 131.216C402.181 137.409 405.791 142.924 410.749 147.054C411.321 147.626 411.936 148.155 412.572 148.684C413.208 149.214 413.759 149.785 414.374 150.336C414.989 150.886 415.561 151.437 416.197 151.966C416.833 152.495 417.384 153.067 417.999 153.597C418.614 154.126 419.186 154.698 419.822 155.248C420.458 155.799 421.009 156.349 421.624 156.878C422.239 157.408 422.811 157.979 423.426 158.509C424.041 159.038 424.634 159.61 425.249 160.139C425.864 160.668 426.436 161.261 427.051 161.791C427.666 162.32 428.259 162.892 428.874 163.421C429.489 163.95 430.061 164.522 430.676 165.051C431.291 165.581 431.885 166.152 432.499 166.703C433.114 167.253 433.687 167.804 434.323 168.333C434.958 168.863 435.51 169.434 436.124 169.963C436.739 170.493 437.312 171.065 437.926 171.615L439.75 173.245C440.322 173.817 440.937 174.346 441.551 174.876C442.166 175.405 442.76 175.977 443.375 176.506C443.989 177.035 444.562 177.628 445.177 178.158C445.791 178.687 446.385 179.259 447 179.788C455.988 188.575 469.662 192.831 481.555 193H482.53C520.689 193 550.199 163.357 563.894 137.759C568.408 129.216 572.167 120.297 575.13 111.102C582.293 110.739 589.471 110.81 596.626 111.314C628.086 113.431 658.868 122.938 688.653 132.063L693.804 133.63C727.278 143.878 760.116 153.088 793.717 153.342C815.68 153.469 834.314 149.595 849.451 141.676C868.361 131.83 881.971 115.061 885.872 96.8309C887.749 88.166 887.324 79.1613 884.639 70.7111C881.954 62.261 877.102 54.6595 870.566 48.6616Z" fill="white"></path><mask id="path-2-inside-1_14239_16561" fill="white"><path d="M870.566 48.6616C869.993 48.09 869.378 47.5606 868.764 47.0313C868.149 46.5019 867.555 45.9303 866.941 45.401C866.326 44.8717 865.753 44.2999 865.139 43.7494L863.315 42.119C862.743 41.5474 862.128 41.0181 861.513 40.4888C860.899 39.9594 860.305 39.3877 859.69 38.8584C859.076 38.3291 858.503 37.7574 857.888 37.2069C857.274 36.6564 856.68 36.1059 856.065 35.5766C855.45 35.0472 854.878 34.4755 854.263 33.9462C853.648 33.4168 853.055 32.8452 852.44 32.2947C851.825 31.7442 851.253 31.2148 850.638 30.6643C850.023 30.1138 849.43 29.5633 848.815 29.034C848.2 28.5046 847.628 27.933 847.013 27.4037C846.398 26.8744 845.805 26.3026 845.19 25.7521C844.575 25.2016 844.003 24.6511 843.388 24.1217C842.773 23.5924 842.18 23.0208 841.565 22.4915C840.95 21.9621 840.378 21.3904 839.763 20.8399C839.148 20.2894 838.554 19.7601 837.94 19.2096C837.325 18.6591 836.752 18.1086 836.138 17.5793C835.523 17.0499 834.929 16.4782 834.315 15.9277C831.619 13.2629 828.574 10.9765 825.262 9.13113C818.797 5.64368 811.51 3.96127 804.169 4.26117L803.618 3.77422C803.003 3.24489 802.473 2.63081 801.795 2.14383C801.116 1.65685 800.65 1.00055 799.993 0.492386C799.335 -0.0157776 798.848 -0.651016 798.169 -1.138C797.491 -1.62498 797.173 -2.1543 796.601 -2.57777C807.92 0.713394 819.736 1.96803 831.495 1.12756C842.879 0.280624 851.825 -2.53542 858.842 -7.4688C868.382 -14.2019 873.682 -25.212 872.262 -35.481C871.096 -42.74 867.236 -49.2942 861.45 -53.8382C860.877 -54.3887 860.284 -54.9393 859.648 -55.4686C859.012 -55.998 858.461 -56.5909 857.825 -57.099C857.189 -57.6072 856.659 -58.2211 856.023 -58.7505C855.387 -59.2798 854.857 -59.8515 854.221 -60.3808C853.585 -60.9102 853.034 -61.4819 852.398 -62.0112C851.762 -62.5406 851.21 -63.1333 850.574 -63.6415C849.939 -64.1497 849.409 -64.7637 848.773 -65.2931C848.137 -65.8224 847.607 -66.3941 846.971 -66.9235C846.335 -67.4528 845.783 -68.0455 845.147 -68.5537C844.511 -69.0619 843.982 -69.676 843.324 -70.2053C842.667 -70.7346 842.158 -71.3062 841.522 -71.8355C840.886 -72.3649 840.356 -72.9578 839.72 -73.4659C839.084 -73.9741 838.533 -74.5882 837.897 -75.0963C837.261 -75.6045 836.731 -76.2184 836.095 -76.7478C835.459 -77.2771 834.908 -77.8488 834.272 -78.3782C833.636 -78.9075 833.106 -79.5004 832.47 -80.0085C831.834 -80.5167 831.283 -81.1307 830.647 -81.66C830.011 -82.1893 829.481 -82.761 828.845 -83.2904C828.209 -83.8197 827.658 -84.4126 827.022 -84.9208C826.386 -85.4289 825.856 -86.0429 825.22 -86.5722C822.895 -88.7729 820.285 -90.6529 817.461 -92.162C809.741 -95.9401 801.232 -97.8271 792.636 -97.667C777.179 -97.8426 761.863 -94.7168 747.715 -88.4991L746.782 -89.2825C736.889 -98.0421 725.944 -105.539 714.198 -111.599C701.595 -118.028 687.492 -120.953 673.368 -120.068C667.448 -119.54 661.643 -118.112 656.154 -115.834C655.645 -116.321 655.115 -116.765 654.585 -117.21C654.055 -117.655 653.398 -118.311 652.783 -118.84C652.168 -119.37 651.575 -119.963 650.96 -120.492C650.345 -121.021 649.773 -121.593 649.158 -122.122C648.543 -122.651 647.95 -123.223 647.335 -123.753C646.72 -124.282 646.148 -124.854 645.533 -125.404C644.918 -125.955 644.325 -126.505 643.71 -127.034C643.095 -127.564 642.523 -128.135 641.908 -128.665C641.293 -129.194 640.7 -129.766 640.085 -130.295C639.47 -130.824 638.898 -131.417 638.283 -131.947C637.668 -132.476 637.074 -133.048 636.46 -133.577C635.845 -134.106 635.273 -134.678 634.658 -135.207C634.043 -135.737 633.449 -136.308 632.835 -136.859C632.22 -137.409 631.647 -137.96 631.033 -138.489C630.418 -139.019 629.824 -139.59 629.209 -140.12C628.595 -140.649 628.022 -141.221 627.407 -141.771C626.793 -142.322 626.199 -142.872 625.584 -143.401C624.97 -143.931 624.397 -144.502 623.782 -145.032C623.168 -145.561 622.574 -146.133 621.959 -146.662C621.344 -147.191 620.772 -147.784 620.157 -148.314C616.417 -152.194 611.655 -154.939 606.42 -156.232C593.7 -159.302 579.793 -153.099 567.498 -138.786C541.719 -108.783 531.459 -70.417 523.551 -33.3849C504.976 -21.6033 484.934 -12.3066 463.938 -5.73257C462.303 -5.22662 460.894 -4.16835 459.954 -2.73904C459.015 -1.30975 458.602 0.401596 458.787 2.10158C458.913 3.19949 459.288 4.2543 459.883 5.18608C460.478 6.11784 461.278 6.90208 462.221 7.47955C462.729 8.12486 463.346 8.67664 464.044 9.10994C464.544 9.75487 465.154 10.3068 465.846 10.7403C466.354 11.392 466.97 11.9508 467.669 12.3918C468.175 13.0313 468.784 13.5823 469.471 14.0222C469.979 14.6675 470.596 15.2191 471.294 15.6524C471.794 16.3037 472.404 16.8627 473.096 17.304C473.61 17.9439 474.226 18.4948 474.92 18.9344C475.42 19.5793 476.03 20.1311 476.721 20.5646C477.23 21.2099 477.847 21.7617 478.545 22.195C479.044 22.8463 479.654 23.4052 480.347 23.8465C480.86 24.4864 481.476 25.0373 482.17 25.4769C482.67 26.1218 483.28 26.6737 483.972 27.1072C484.479 27.7589 485.096 28.3177 485.795 28.7587C486.301 29.3982 486.91 29.9492 487.597 30.3891C488.105 31.0344 488.722 31.5862 489.42 32.0195C489.925 32.6655 490.534 33.2234 491.222 33.6709C491.733 34.3056 492.341 34.8558 493.024 35.3013C493.537 35.9418 494.153 36.4928 494.847 36.9317C495.347 37.5766 495.957 38.1284 496.649 38.5619C497.162 39.2089 497.778 39.767 498.472 40.2135C499.077 41.0079 499.839 41.6696 500.71 42.1577C501.582 42.6457 502.545 42.9497 503.539 43.0507C504.09 43.0507 504.684 43.0507 505.235 43.0507C504.79 44.4058 504.387 45.782 503.92 47.1371C476.514 52.4507 450.521 63.4195 427.602 79.3417C405.788 94.8194 395.612 114.214 400.382 131.216C402.181 137.409 405.791 142.924 410.749 147.054C411.321 147.626 411.936 148.155 412.572 148.684C413.208 149.214 413.759 149.785 414.374 150.336C414.989 150.886 415.561 151.437 416.197 151.966C416.833 152.495 417.384 153.067 417.999 153.597C418.614 154.126 419.186 154.698 419.822 155.248C420.458 155.799 421.009 156.349 421.624 156.878C422.239 157.408 422.811 157.979 423.426 158.509C424.041 159.038 424.634 159.61 425.249 160.139C425.864 160.668 426.436 161.261 427.051 161.791C427.666 162.32 428.259 162.892 428.874 163.421C429.489 163.95 430.061 164.522 430.676 165.051C431.291 165.581 431.885 166.152 432.499 166.703C433.114 167.253 433.687 167.804 434.323 168.333C434.958 168.863 435.51 169.434 436.124 169.963C436.739 170.493 437.312 171.065 437.926 171.615L439.75 173.245C440.322 173.817 440.937 174.346 441.551 174.876C442.166 175.405 442.76 175.977 443.375 176.506C443.989 177.035 444.562 177.628 445.177 178.158C445.791 178.687 446.385 179.259 447 179.788C455.988 188.575 469.662 192.831 481.555 193H482.53C520.689 193 550.199 163.357 563.894 137.759C568.408 129.216 572.167 120.297 575.13 111.102C582.293 110.739 589.471 110.81 596.626 111.314C628.086 113.431 658.868 122.938 688.653 132.063L693.804 133.63C727.278 143.878 760.116 153.088 793.717 153.342C815.68 153.469 834.314 149.595 849.451 141.676C868.361 131.83 881.971 115.061 885.872 96.8309C887.749 88.166 887.324 79.1613 884.639 70.7111C881.954 62.261 877.102 54.6595 870.566 48.6616Z"></path></mask><path d="M870.566 48.6616C869.993 48.09 869.378 47.5606 868.764 47.0313C868.149 46.5019 867.555 45.9303 866.941 45.401C866.326 44.8717 865.753 44.2999 865.139 43.7494L863.315 42.119C862.743 41.5474 862.128 41.0181 861.513 40.4888C860.899 39.9594 860.305 39.3877 859.69 38.8584C859.076 38.3291 858.503 37.7574 857.888 37.2069C857.274 36.6564 856.68 36.1059 856.065 35.5766C855.45 35.0472 854.878 34.4755 854.263 33.9462C853.648 33.4168 853.055 32.8452 852.44 32.2947C851.825 31.7442 851.253 31.2148 850.638 30.6643C850.023 30.1138 849.43 29.5633 848.815 29.034C848.2 28.5046 847.628 27.933 847.013 27.4037C846.398 26.8744 845.805 26.3026 845.19 25.7521C844.575 25.2016 844.003 24.6511 843.388 24.1217C842.773 23.5924 842.18 23.0208 841.565 22.4915C840.95 21.9621 840.378 21.3904 839.763 20.8399C839.148 20.2894 838.554 19.7601 837.94 19.2096C837.325 18.6591 836.752 18.1086 836.138 17.5793C835.523 17.0499 834.929 16.4782 834.315 15.9277C831.619 13.2629 828.574 10.9765 825.262 9.13113C818.797 5.64368 811.51 3.96127 804.169 4.26117L803.618 3.77422C803.003 3.24489 802.473 2.63081 801.795 2.14383C801.116 1.65685 800.65 1.00055 799.993 0.492386C799.335 -0.0157776 798.848 -0.651016 798.169 -1.138C797.491 -1.62498 797.173 -2.1543 796.601 -2.57777C807.92 0.713394 819.736 1.96803 831.495 1.12756C842.879 0.280624 851.825 -2.53542 858.842 -7.4688C868.382 -14.2019 873.682 -25.212 872.262 -35.481C871.096 -42.74 867.236 -49.2942 861.45 -53.8382C860.877 -54.3887 860.284 -54.9393 859.648 -55.4686C859.012 -55.998 858.461 -56.5909 857.825 -57.099C857.189 -57.6072 856.659 -58.2211 856.023 -58.7505C855.387 -59.2798 854.857 -59.8515 854.221 -60.3808C853.585 -60.9102 853.034 -61.4819 852.398 -62.0112C851.762 -62.5406 851.21 -63.1333 850.574 -63.6415C849.939 -64.1497 849.409 -64.7637 848.773 -65.2931C848.137 -65.8224 847.607 -66.3941 846.971 -66.9235C846.335 -67.4528 845.783 -68.0455 845.147 -68.5537C844.511 -69.0619 843.982 -69.676 843.324 -70.2053C842.667 -70.7346 842.158 -71.3062 841.522 -71.8355C840.886 -72.3649 840.356 -72.9578 839.72 -73.4659C839.084 -73.9741 838.533 -74.5882 837.897 -75.0963C837.261 -75.6045 836.731 -76.2184 836.095 -76.7478C835.459 -77.2771 834.908 -77.8488 834.272 -78.3782C833.636 -78.9075 833.106 -79.5004 832.47 -80.0085C831.834 -80.5167 831.283 -81.1307 830.647 -81.66C830.011 -82.1893 829.481 -82.761 828.845 -83.2904C828.209 -83.8197 827.658 -84.4126 827.022 -84.9208C826.386 -85.4289 825.856 -86.0429 825.22 -86.5722C822.895 -88.7729 820.285 -90.6529 817.461 -92.162C809.741 -95.9401 801.232 -97.8271 792.636 -97.667C777.179 -97.8426 761.863 -94.7168 747.715 -88.4991L746.782 -89.2825C736.889 -98.0421 725.944 -105.539 714.198 -111.599C701.595 -118.028 687.492 -120.953 673.368 -120.068C667.448 -119.54 661.643 -118.112 656.154 -115.834C655.645 -116.321 655.115 -116.765 654.585 -117.21C654.055 -117.655 653.398 -118.311 652.783 -118.84C652.168 -119.37 651.575 -119.963 650.96 -120.492C650.345 -121.021 649.773 -121.593 649.158 -122.122C648.543 -122.651 647.95 -123.223 647.335 -123.753C646.72 -124.282 646.148 -124.854 645.533 -125.404C644.918 -125.955 644.325 -126.505 643.71 -127.034C643.095 -127.564 642.523 -128.135 641.908 -128.665C641.293 -129.194 640.7 -129.766 640.085 -130.295C639.47 -130.824 638.898 -131.417 638.283 -131.947C637.668 -132.476 637.074 -133.048 636.46 -133.577C635.845 -134.106 635.273 -134.678 634.658 -135.207C634.043 -135.737 633.449 -136.308 632.835 -136.859C632.22 -137.409 631.647 -137.96 631.033 -138.489C630.418 -139.019 629.824 -139.59 629.209 -140.12C628.595 -140.649 628.022 -141.221 627.407 -141.771C626.793 -142.322 626.199 -142.872 625.584 -143.401C624.97 -143.931 624.397 -144.502 623.782 -145.032C623.168 -145.561 622.574 -146.133 621.959 -146.662C621.344 -147.191 620.772 -147.784 620.157 -148.314C616.417 -152.194 611.655 -154.939 606.42 -156.232C593.7 -159.302 579.793 -153.099 567.498 -138.786C541.719 -108.783 531.459 -70.417 523.551 -33.3849C504.976 -21.6033 484.934 -12.3066 463.938 -5.73257C462.303 -5.22662 460.894 -4.16835 459.954 -2.73904C459.015 -1.30975 458.602 0.401596 458.787 2.10158C458.913 3.19949 459.288 4.2543 459.883 5.18608C460.478 6.11784 461.278 6.90208 462.221 7.47955C462.729 8.12486 463.346 8.67664 464.044 9.10994C464.544 9.75487 465.154 10.3068 465.846 10.7403C466.354 11.392 466.97 11.9508 467.669 12.3918C468.175 13.0313 468.784 13.5823 469.471 14.0222C469.979 14.6675 470.596 15.2191 471.294 15.6524C471.794 16.3037 472.404 16.8627 473.096 17.304C473.61 17.9439 474.226 18.4948 474.92 18.9344C475.42 19.5793 476.03 20.1311 476.721 20.5646C477.23 21.2099 477.847 21.7617 478.545 22.195C479.044 22.8463 479.654 23.4052 480.347 23.8465C480.86 24.4864 481.476 25.0373 482.17 25.4769C482.67 26.1218 483.28 26.6737 483.972 27.1072C484.479 27.7589 485.096 28.3177 485.795 28.7587C486.301 29.3982 486.91 29.9492 487.597 30.3891C488.105 31.0344 488.722 31.5862 489.42 32.0195C489.925 32.6655 490.534 33.2234 491.222 33.6709C491.733 34.3056 492.341 34.8558 493.024 35.3013C493.537 35.9418 494.153 36.4928 494.847 36.9317C495.347 37.5766 495.957 38.1284 496.649 38.5619C497.162 39.2089 497.778 39.767 498.472 40.2135C499.077 41.0079 499.839 41.6696 500.71 42.1577C501.582 42.6457 502.545 42.9497 503.539 43.0507C504.09 43.0507 504.684 43.0507 505.235 43.0507C504.79 44.4058 504.387 45.782 503.92 47.1371C476.514 52.4507 450.521 63.4195 427.602 79.3417C405.788 94.8194 395.612 114.214 400.382 131.216C402.181 137.409 405.791 142.924 410.749 147.054C411.321 147.626 411.936 148.155 412.572 148.684C413.208 149.214 413.759 149.785 414.374 150.336C414.989 150.886 415.561 151.437 416.197 151.966C416.833 152.495 417.384 153.067 417.999 153.597C418.614 154.126 419.186 154.698 419.822 155.248C420.458 155.799 421.009 156.349 421.624 156.878C422.239 157.408 422.811 157.979 423.426 158.509C424.041 159.038 424.634 159.61 425.249 160.139C425.864 160.668 426.436 161.261 427.051 161.791C427.666 162.32 428.259 162.892 428.874 163.421C429.489 163.95 430.061 164.522 430.676 165.051C431.291 165.581 431.885 166.152 432.499 166.703C433.114 167.253 433.687 167.804 434.323 168.333C434.958 168.863 435.51 169.434 436.124 169.963C436.739 170.493 437.312 171.065 437.926 171.615L439.75 173.245C440.322 173.817 440.937 174.346 441.551 174.876C442.166 175.405 442.76 175.977 443.375 176.506C443.989 177.035 444.562 177.628 445.177 178.158C445.791 178.687 446.385 179.259 447 179.788C455.988 188.575 469.662 192.831 481.555 193H482.53C520.689 193 550.199 163.357 563.894 137.759C568.408 129.216 572.167 120.297 575.13 111.102C582.293 110.739 589.471 110.81 596.626 111.314C628.086 113.431 658.868 122.938 688.653 132.063L693.804 133.63C727.278 143.878 760.116 153.088 793.717 153.342C815.68 153.469 834.314 149.595 849.451 141.676C868.361 131.83 881.971 115.061 885.872 96.8309C887.749 88.166 887.324 79.1613 884.639 70.7111C881.954 62.261 877.102 54.6595 870.566 48.6616Z" fill="white" stroke="white" stroke-width="44.2888" mask="url(#path-2-inside-1_14239_16561)"></path><path d="M821.674 15.5943C806.219 7.01907 783.515 12.6511 776.052 28.6369C782.539 29.738 787.543 37.8686 785.253 43.9453C782.963 50.0221 777.134 54.1085 771.304 57.1786C748.726 69.0145 721.972 71.1106 696.363 68.7392C670.754 66.3678 645.485 59.7617 619.833 55.273C592.445 50.1353 564.524 48.4071 536.71 50.1279C539.657 37.4239 542.031 24.36 544.766 11.6137C546.78 2.27625 549.006 -6.99771 551.507 -16.2081C556.642 -18.9658 561.598 -22.0419 566.347 -25.4184C594.265 -45.1668 613.793 -74.6155 621.105 -107.994C622.759 -115.977 623.628 -124.319 621.317 -132.132C619.006 -139.945 612.965 -147.165 604.739 -149.071C592.677 -151.95 581.081 -143.205 573.152 -133.995C547.967 -104.818 538.385 -67.4051 530.181 -29.0179C510.329 -16.0491 488.787 -5.8683 466.158 1.23869C486.072 3.02104 506.142 0.862518 525.22 -5.1133C520.98 14.8955 516.422 34.7985 509.49 53.6216C481.649 58.5171 455.191 69.3498 431.921 85.3815C417.081 95.9682 402.856 112.504 407.563 129.231C411.548 143.46 428.169 151.04 443.602 151.23C475.889 151.654 504.508 127.58 519.305 99.9064C524.381 90.2575 528.486 80.1293 531.559 69.6708C540.732 68.9922 549.944 68.9922 559.118 69.6708C593.249 72.0422 625.79 82.3748 657.95 92.3051C690.11 102.235 722.46 111.361 755.743 111.7C773.763 111.827 792.122 109.159 808 100.859C823.878 92.5592 836.916 78.2249 840.605 61.011C844.294 43.7971 837.086 24.1694 821.674 15.5943ZM572.474 -79.3257C576.713 -89.9123 583.413 -106.237 592.401 -115.574C592.925 -116.121 593.599 -116.499 594.339 -116.661C595.079 -116.823 595.85 -116.762 596.555 -116.485C597.26 -116.208 597.866 -115.728 598.296 -115.106C598.727 -114.484 598.963 -113.747 598.973 -112.991C598.443 -96.963 586.359 -77.166 575.654 -66.2194C571.647 -62.1541 567.513 -58.1736 563.252 -54.3412C566.135 -62.74 569.209 -71.0681 572.474 -79.3257ZM481.146 104.374C477.203 109.096 472.666 113.796 466.54 115.299C460.413 116.803 452.93 113.648 452.336 107.719C451.806 102.744 456.067 98.4242 460.222 95.2482C472.13 86.2453 485.619 79.5453 499.993 75.4935C494.816 85.7963 488.494 95.4842 481.146 104.374Z" fill="#FFADE3"></path><path d="M591.987 -29.3338C582.871 -23.2994 576.342 -14.3008 570.936 -4.98451C566.484 2.65905 562.456 11.4248 564.576 19.9153C565.544 23.3773 567.302 26.5684 569.711 29.2389C572.12 31.9093 575.115 33.9867 578.462 35.3083C585.336 37.9885 592.866 38.5057 600.043 36.7905C606.208 35.4566 612.041 32.8938 617.192 29.2557C622.342 25.6175 626.705 20.9788 630.019 15.6172C633.19 10.3622 635.207 4.49469 635.938 -1.59722C636.669 -7.68912 636.097 -13.8666 634.259 -19.721C628.153 -38.2689 606.996 -39.2853 591.987 -29.3338ZM614.946 -17.392C613.356 -4.28576 597.986 28.3211 590.397 25.8438C583.91 23.7265 592.135 0.287624 595.824 -7.65236C598.283 -12.9245 601.887 -19.6153 606.848 -23.13C611.808 -26.6448 615.603 -22.8971 614.946 -17.392Z" fill="#FFADE3"></path><path d="M677.031 -48.3618C678.77 -49.1316 680.303 -50.3007 681.505 -51.7741C682.707 -53.2475 683.543 -54.9834 683.946 -56.8406C684.349 -58.6978 684.307 -60.6239 683.824 -62.4619C683.34 -64.2999 682.429 -65.998 681.165 -67.4178C678.409 -64.6865 672.918 -66.9732 672.134 -70.7208C671.349 -74.4685 674.254 -78.2161 677.963 -79.6347C681.74 -80.8097 685.779 -80.8539 689.581 -79.7617C701.325 -77.1574 711.543 -71.0172 721.634 -64.4747C719.175 -62.5409 716.794 -60.5364 714.49 -58.4614C693.121 -38.9396 676.161 -14.1881 664.163 12.1939C667.613 -1.17184 668.845 -15.0125 667.809 -28.7766C667.743 -29.6929 667.493 -30.5866 667.075 -31.4051C666.658 -32.2236 666.08 -32.9503 665.377 -33.5424C664.673 -34.1344 663.858 -34.5797 662.98 -34.8521C662.102 -35.1245 661.177 -35.2186 660.262 -35.1285C653.254 -34.4187 646.495 -32.1467 640.483 -28.4801C648.411 -18.4228 647.754 -4.42717 646.249 8.23446C645.125 17.4872 643.832 27.2903 645.613 36.1831C645.846 37.3387 646.371 38.4154 647.139 39.3107C647.907 40.2059 648.891 40.89 649.998 41.2976C651.106 41.7052 652.299 41.8228 653.465 41.6391C654.631 41.4555 655.73 40.9767 656.658 40.2485C670.607 29.2595 681.589 15.7721 691.552 1.07788C703.233 -16.136 714.109 -33.964 728.779 -48.5735C731.068 -50.8602 733.464 -53.0623 735.944 -55.1373C739.336 -53.02 742.749 -51.1567 746.289 -49.4417C760.795 -42.4751 776.875 -39.4236 792.928 -40.5912C801.281 -41.2052 809.782 -43.0685 816.545 -47.8537C823.307 -52.6389 827.992 -60.7058 826.89 -68.8152C825.915 -75.9929 820.53 -82.1543 814.043 -85.5844C807.339 -88.7865 799.976 -90.3746 792.547 -90.2214C776.589 -90.3333 760.82 -86.7762 746.459 -79.8253L741.986 -83.6365C732.57 -92.0191 722.144 -99.1958 710.95 -105C699.571 -110.86 686.822 -113.552 674.042 -112.792C661.322 -111.712 648.602 -105.805 641.204 -95.7053C633.805 -85.6056 632.236 -71.1231 638.956 -60.4941C645.677 -49.8651 665.435 -42.9203 677.031 -48.3618ZM783.24 -74.9767C785.815 -75.1957 788.404 -74.7889 790.787 -73.791C791.958 -73.2876 792.954 -72.4508 793.652 -71.3851C794.349 -70.3194 794.717 -69.0721 794.709 -67.7989C794.349 -64.0512 789.876 -62.1456 786.038 -61.7856C777.544 -61.3389 769.122 -63.5602 761.956 -68.1376C761.129 -68.6246 760.324 -69.154 759.518 -69.6622C767.028 -72.8857 775.071 -74.6877 783.24 -74.9767Z" fill="#FFADE3"></path><path d="M731.444 20.1587C738.784 22.0286 746.521 21.6149 753.619 18.973C757.274 17.522 760.583 15.3212 763.333 12.5129C766.082 9.70453 768.212 6.35116 769.582 2.66954C772.296 -4.97402 771.151 -14.269 765.978 -20.261C761.694 -24.6862 755.894 -27.3328 749.74 -27.6717C743.832 -28.1932 737.88 -27.5127 732.243 -25.6712C726.606 -23.8297 721.401 -20.8655 716.944 -16.958C707.457 -8.47337 701.347 3.13913 699.73 15.7548C698.67 23.8006 699.497 32.4181 703.504 39.2147C706.302 43.804 710.451 47.4183 715.384 49.5633C720.317 51.7083 725.793 52.2796 731.063 51.1988C741.345 49.0815 750.142 41.3109 755.739 31.55C751.181 32.8204 743.528 34.5989 738.78 34.0484C736.337 33.8799 733.966 33.1557 731.847 31.9311C730.759 31.2291 729.839 30.2959 729.154 29.1978C728.469 28.0998 728.035 26.8641 727.883 25.5791C727.702 24.3959 727.966 23.1877 728.623 22.187C729.281 21.1863 730.286 20.4638 731.444 20.1587ZM733.564 4.74462C736.414 -0.649786 739.979 -5.63526 744.164 -10.0767C745.463 -11.6028 747.029 -12.88 748.786 -13.8456C758.368 -18.5884 753.556 -6.4561 751.224 -2.83546C747.833 2.47038 742.824 6.54589 736.935 8.78866C735.748 9.2333 734.243 9.52973 733.352 8.66163C732.462 7.79352 733.013 5.99382 733.649 4.85046L733.564 4.74462Z" fill="#FFADE3"></path></g><g filter="url(#filter1_ddddd_14239_16561)"><path d="M932.047 52.2926C960.742 -27.9306 1027.01 -88.22 1097.48 -136.894C1099.87 -138.543 1102.97 -135.349 1101.41 -132.907C1090 -115.042 1081.83 -95.2514 1077.36 -74.4445C1124.21 -95.2859 1173.56 -109.94 1224.17 -118.057C1226.68 -118.46 1228.14 -115.352 1226.25 -113.651C1193.83 -84.4689 1162.96 -53.6089 1133.76 -21.198C1165.11 -20.2961 1196.22 -15.4419 1226.34 -6.7618C1228.71 -6.07819 1228.79 -2.79803 1226.47 -1.95932C1143.57 28.1194 1064 66.7288 989.071 113.266L932.047 52.2926Z" fill="#F26722"></path><path d="M923.93 49.3763L922.16 54.3281L925.75 58.1655L982.774 119.139L987.605 124.309L993.614 120.575C1068.04 74.3537 1147.06 36.0028 1229.41 6.13671C1239.29 2.55208 1239.39 -11.9759 1228.73 -15.0493C1203.81 -22.23 1178.24 -26.8487 1152.41 -28.8478C1177.75 -56.1634 1204.31 -82.3243 1232.01 -107.256C1240.1 -114.529 1234.05 -128.379 1222.81 -126.575C1177.34 -119.285 1132.87 -106.79 1090.27 -89.3384C1094.72 -103.045 1100.91 -116.131 1108.67 -128.275C1112.15 -133.721 1110 -139.494 1107.08 -142.47C1104.13 -145.48 1098.16 -147.847 1092.58 -143.998C1021.69 -95.0256 953.558 -33.4492 923.93 49.3763Z" stroke="white" stroke-width="17.2338"></path><path d="M975.182 -7.64048L948.384 26.8041L921.576 -7.64609C914.658 -16.533 900.405 -11.3458 900.823 -0.0921154L902.442 43.5209L859.769 34.3583C848.754 31.9915 841.17 45.1295 848.726 53.4878L878 85.8529L839.412 106.269C829.454 111.543 832.088 126.479 843.247 128.024L886.486 134.004L870.047 174.429C865.804 184.867 877.423 194.615 886.965 188.629L923.934 165.421L937.341 206.96C940.801 217.68 955.968 217.68 959.426 206.96L972.826 165.421L1009.79 188.629C1019.34 194.615 1030.95 184.867 1026.71 174.429L1010.27 134.004L1053.51 128.024C1064.67 126.479 1067.3 111.543 1057.35 106.269L1018.76 85.8529L1048.03 53.4878C1055.59 45.1295 1048 31.9915 1036.99 34.3583L994.317 43.5209L995.936 -0.0863295C996.353 -11.3457 982.1 -16.5331 975.182 -7.64048Z" fill="#5C59ED" stroke="white" stroke-width="17.2338"></path></g><g filter="url(#filter2_ddd_14239_16561)"></g><g filter="url(#filter3_ddd_14239_16561)"></g><g filter="url(#filter4_d_14239_16561)"></g><g filter="url(#filter5_ddddd_14239_16561)"><path d="M343.759 134.532C400.383 77.9083 400.383 -13.9051 343.759 -70.5289C287.131 -127.157 195.321 -127.157 138.698 -70.5289C82.0695 -13.9051 82.0695 77.9083 138.698 134.532C195.321 191.16 287.131 191.16 343.759 134.532Z" fill="#FED33D" stroke="white" stroke-width="17.3135"></path><path d="M241.229 161.971C313.015 161.971 371.206 103.776 371.206 31.9943C371.206 -39.7875 313.015 -97.9824 241.229 -97.9824C169.447 -97.9824 111.252 -39.7875 111.252 31.9943C111.252 103.776 169.447 161.971 241.229 161.971Z" fill="#F26722"></path><path d="M145.642 41.0314C146.966 59.6997 149.806 78.2338 154.125 96.4432C154.385 96.6164 154.675 96.7332 154.978 96.7851C155.792 96.889 155.857 95.5906 155.233 92.7988C150.29 70.8843 148.559 49.0952 148.152 26.6915C149.36 24.1335 151.096 21.8611 153.247 20.0172C155.065 18.2469 157.233 16.8747 159.614 15.9961C164.085 14.5807 167.357 16.273 169.56 20.8351C171.764 25.3929 172.95 31.7469 173.253 39.5033C173.417 43.8317 173.062 53.7049 173.088 68.0924C173.201 86.1158 174.43 104.109 176.767 121.976C177.836 129.174 177.685 133.615 176.248 135.273C174.971 136.697 172.742 136.217 169.47 134.001C167.098 132.287 164.873 130.373 162.821 128.283C160.441 125.937 158.112 123.465 155.831 120.907C148.035 110.701 140.807 100.071 134.18 89.0678C126.809 76.8315 120.174 63.4567 117.191 48.8657C117.914 45.0308 119.399 41.3777 121.55 38.1227C123.706 34.8678 126.489 32.0761 129.735 29.9119C137.877 24.8823 142.737 28.9595 145.642 41.0314Z" fill="#FED33D"></path><path d="M201.928 35.75C202.361 71.7664 203.993 107.679 208.182 143.479C207.525 145.492 206.282 147.262 204.616 148.574C203.088 149.708 201.114 149.846 198.669 148.98C196.223 148.115 193.868 145.795 191.501 142.254C188.61 137.809 186.601 132.844 185.588 127.637C178.408 93.0577 175.49 58.1278 174.689 22.8862C175.919 19.8909 177.732 17.1685 180.026 14.8788C181.039 13.7707 182.281 12.9005 183.667 12.3291C185.056 11.7535 186.549 11.4896 188.047 11.5546C191.639 11.5546 194.938 13.7576 197.6 17.7787C200.564 22.3148 201.902 28.4913 201.928 35.75Z" fill="#FED33D"></path><path d="M205.494 31.5221C205.581 29.5656 206.23 27.6699 207.368 26.0727C209.913 22.1253 214.51 19.7057 220.345 19.8182C223.803 20 227.158 21.0386 230.11 22.8479C238.351 27.4836 244.45 35.8289 248.553 45.7755C252.267 54.8781 254.197 64.6082 254.245 74.4423C254.297 78.0089 254.041 81.5753 253.483 85.0986C253.206 87.6524 252.396 90.1195 251.098 92.3357C250.159 90.6649 248.722 89.3275 246.986 88.5137C246.744 88.4012 246.466 88.3753 246.207 88.4445C245.951 88.5138 245.726 88.6739 245.571 88.8947C245.146 89.821 244.973 90.8467 245.077 91.8638C249.163 93.6082 252.158 97.7981 254.31 104.217C256.327 110.653 257.236 117.388 256.997 124.132C256.781 135.697 254.271 143.467 249.786 148.561C245.597 153.322 239.381 155.985 231.27 155.296C226.985 155.097 222.773 154.093 218.851 152.344C215.943 150.682 213.731 148.02 212.64 144.852C210.788 139.679 209.693 134.269 209.39 128.781C206.871 96.3696 205.646 64.0498 205.494 31.5221ZM229.69 81.19C229.794 81.4324 230.123 81.649 230.646 81.8394C231.17 82.0299 231.59 81.662 231.919 80.7444C232.252 79.1472 232.378 77.511 232.304 75.8792V75.2301C232.339 73.4078 232.213 71.5811 231.919 69.7805C231.676 68.6075 231.283 67.9064 230.737 67.69C230.188 67.4736 229.82 67.4606 229.629 67.69C229.629 68.0623 229.629 68.6595 229.629 69.4862C229.69 74.2128 229.69 76.5024 229.768 81.19H229.69ZM230.226 118.631C230.326 118.847 230.646 119.016 231.157 119.128C231.663 119.245 232.049 118.912 232.304 118.15C232.62 116.743 232.733 115.293 232.633 113.856C232.633 113.129 232.633 112.761 232.633 112.034C232.65 110.286 232.512 108.537 232.213 106.814C231.971 105.706 231.577 105.083 231.04 104.927C230.508 104.775 230.136 104.814 229.958 105.031C229.958 105.36 229.958 105.922 229.958 106.71C230.149 111.541 230.2 113.921 230.304 118.631H230.226Z" fill="#FED33D"></path><path d="M277.104 51.7876C286.341 55.4623 296.171 57.4057 306.105 57.5182C307.148 60.0936 307.888 62.7816 308.308 65.5301C308.719 68.0535 308.892 70.6117 308.831 73.1697C308.654 78.1647 307.762 81.8957 306.347 84.4538C305.841 85.5748 305.035 86.5399 304.023 87.2325C303.005 87.9293 301.82 88.3363 300.59 88.4012C294.223 88.6523 287.843 88.1933 281.576 87.042C280.468 86.8602 279.922 87.5355 279.909 89.0894C279.909 89.3448 279.909 89.4704 279.909 89.7388C279.892 89.9595 279.922 90.1801 279.996 90.3879C287.363 91.7556 294.877 92.1626 302.348 91.5999C302.906 93.3659 303.239 95.1967 303.343 97.0492C303.477 99.1442 303.399 101.248 303.114 103.33C302.586 107.818 301.213 112.164 299.062 116.142C295.24 116.765 293.422 117.008 289.752 117.311C286.826 117.423 283.917 117.847 281.078 118.587C280.048 118.899 279.083 119.392 278.226 120.05C277.827 120.526 277.602 121.124 277.589 121.743C277.55 122.024 277.563 122.31 277.641 122.587C277.715 122.859 277.845 123.115 278.022 123.335C279.442 122.474 280.983 121.834 282.597 121.44C284.826 120.955 287.086 120.613 289.358 120.418C293.345 120.063 297.301 119.436 301.201 118.548C302.04 121.859 301.685 125.894 300.209 130.659C299.383 133.308 298.352 135.888 297.128 138.377C296.071 140.563 294.829 142.649 293.409 144.618C285.281 148.349 276.706 151.015 267.898 152.552C266.565 152.877 265.163 152.747 263.912 152.176C262.665 151.604 261.644 150.626 261.02 149.405C259.215 146.501 258.337 141.761 258.475 135.204C259.176 107.29 259.111 79.4371 258.475 51.5234C258.384 48.4762 259.748 47.0392 262.691 47.2296C265.63 47.4201 270.218 49.2165 277.104 51.7876Z" fill="#FED33D"></path><path d="M324.433 113.864C325.338 113.224 326.048 112.341 326.472 111.315C326.931 110.267 327.221 109.147 327.325 108.004C327.446 106.969 327.273 105.918 326.827 104.974C325.654 102.745 322.866 102.286 318.78 103.589C316.59 104.316 314.547 105.424 312.742 106.861C311.227 105.852 310.197 103.779 309.634 100.581C309.037 96.9318 308.959 93.2138 309.405 89.539C310.565 78.7138 313.647 69.7107 319.594 62.794C324.589 57.1065 331.125 52.9901 338.418 50.9514C343.98 49.246 348.603 48.2634 352.36 48.4063C356.117 48.5448 358.956 49.1812 360.969 50.6442C361.285 53.5961 361.138 56.5783 360.523 59.4827C359.9 62.6121 358.956 65.6679 357.71 68.6025C356.632 71.2126 355.277 73.7015 353.671 76.0258C353.074 75.5064 351.698 75.3765 349.494 75.5453C347.261 75.7054 345.075 76.2507 343.028 77.1597C341.5 77.757 340.054 78.5536 338.734 79.5318C338.241 79.93 337.847 80.4407 337.578 81.0207C337.31 81.5964 337.18 82.2282 337.193 82.8645C338.427 81.9901 339.751 81.2544 341.141 80.6614C346.629 78.2419 350.654 77.848 352.602 79.7828C354.883 82.0768 353.749 87.7427 348.668 96.2263C344.175 103.701 338.02 110.757 331.579 117.531C324.637 124.815 318.841 130.343 313.443 134.203C311.219 135.909 308.751 137.268 306.12 138.237C304.211 138.826 301.471 138.48 301.025 137.64C300.225 136.125 301.523 130.459 302.848 125.949C304.09 121.482 306.141 117.279 308.894 113.544C311.686 109.865 314.603 107.584 317.581 106.619C320.564 105.649 322.741 105.688 323.948 106.796C325.16 107.904 325.377 110.311 324.433 113.864Z" fill="#FED33D"></path><path d="M159.438 -45.9802C166.913 -49.8021 174.791 -52.7888 182.92 -54.8924C183.759 -50.7675 183.85 -46.5212 183.188 -42.3617C182.773 -37.713 181.738 -33.138 180.119 -28.7621L178.479 -28.4545C177.998 -21.2478 177.929 -14.0196 178.271 -6.80421C173.306 2.32433 166.632 7.47078 155.963 11.1283C149.959 13.3184 143.588 14.3226 137.203 14.0932C130.949 13.6733 125.971 11.5481 123.547 6.92537C120.89 1.83087 121.435 -6.21971 125.776 -16.3698C131.572 -29.9046 140.844 -41.8378 150.829 -52.702C159.321 -61.8609 166.022 -68.2756 172.519 -72.5044C175.713 -74.621 178.388 -75.7681 180.755 -75.8157C181.781 -75.9196 182.811 -75.7335 183.738 -75.2834C184.664 -74.8332 185.447 -74.1362 186.001 -73.2705C185.292 -71.1064 184.283 -68.3146 183.037 -64.8389C181.79 -61.3632 180.717 -58.4978 179.738 -56.4981C172.592 -54.3426 165.671 -51.4902 159.079 -47.9885C157.434 -45.7551 155.954 -43.4049 154.66 -40.9464C152.972 -37.9079 151.69 -34.6572 150.842 -31.281C149.669 -26.4809 149.924 -22.9792 151.262 -20.9015C152.599 -18.8283 154.396 -18.4691 156.789 -19.3738C157.231 -19.5036 157.625 -19.7719 157.91 -20.1312C158.2 -20.4948 158.369 -20.9361 158.395 -21.3993C158.395 -22.0226 158.482 -22.3299 158.547 -22.9532L158.036 -22.7627C157.252 -22.3559 156.343 -22.2736 155.499 -22.5247C154.651 -22.7757 153.937 -23.3428 153.504 -24.1132C152.496 -25.7926 152.396 -28.684 153.335 -32.7224C154.452 -37.5053 156.53 -42.0154 159.438 -45.9802Z" fill="#FED33D"></path><path d="M216.017 10.9109C210.026 8.5476 204.499 5.13683 199.703 0.834419C194.037 -4.08261 189.54 -10.2073 186.536 -17.0851C183.264 -24.4434 183.645 -33.4853 184.614 -43.4839C185.71 -54.5775 191.094 -68.8263 198.353 -77.4095C204.352 -84.5296 210.238 -89.4814 217.112 -90.8318C224.6 -92.2991 230.612 -89.0615 235.148 -79.7295C241.221 -67.2335 242.532 -52.2962 242.649 -38.5666C242.762 -24.2267 242.264 -7.34193 235.196 5.26662C230.971 12.8196 224.756 14.0922 216.017 10.9109ZM216.476 -47.6735C216.61 -51.0973 216.567 -54.5298 216.35 -57.9492C216.16 -59.7844 215.727 -60.689 215.078 -60.702C214.835 -60.6933 214.601 -60.6242 214.394 -60.5073C214.182 -60.3861 214.008 -60.2172 213.879 -60.0138C213.879 -59.1481 213.879 -58.0012 213.995 -56.5512C214.108 -55.0968 213.995 -52.0019 213.879 -47.0892C213.879 -45.1371 213.879 -44.146 213.788 -42.1593C213.788 -38.6966 213.688 -36.1212 213.597 -34.5154C213.511 -32.9139 213.433 -31.5374 213.381 -30.3904C213.381 -29.7542 213.381 -29.1179 213.294 -28.4947C213.424 -28.2436 213.602 -28.0272 213.822 -27.8498C214.043 -27.6766 214.294 -27.5466 214.567 -27.4731C215.307 -27.3475 215.839 -28.2522 216.043 -30.2C216.363 -33.7882 216.506 -37.3851 216.463 -40.9863C216.415 -43.7002 216.437 -45.0375 216.476 -47.6865V-47.6735Z" fill="#FED33D"></path><path d="M271.112 41.6478C266.017 39.2153 261.814 34.0083 257.953 26.6198C254.097 19.2356 251.002 9.73469 248.466 -1.19446C245.847 -13.2836 244.527 -25.6151 244.518 -37.9856C244.419 -51.8667 245.41 -67.44 252.019 -79.9361C256.261 -87.9695 261.84 -91.6401 268.653 -90.1208C276.05 -88.4674 282.344 -81.4122 288.468 -68.8816C296.008 -53.4466 299.432 -37.2583 301.419 -20.4859C303.445 -3.49702 301.622 16.4438 293.143 31.4113C287.295 41.6998 279.275 45.5694 271.112 41.6478ZM273.977 -32.5361C273.925 -36.9986 273.648 -41.4568 273.146 -45.8934C272.791 -48.339 272.28 -49.6504 271.605 -49.8538C271.198 -49.9663 270.83 -49.7759 270.523 -49.2565C270.627 -48.1095 270.765 -46.5815 270.943 -44.6467C271.125 -42.7076 271.341 -38.6609 271.48 -32.2938C271.48 -29.7444 271.558 -28.4717 271.592 -25.9222C271.67 -21.4424 271.592 -18.1571 271.592 -16.1055C271.592 -14.0538 271.441 -12.2837 271.389 -10.8337C271.389 -10.033 271.328 -9.22775 271.302 -8.42699C271.493 -7.80804 271.908 -7.28435 272.471 -6.95972C273.172 -6.69569 273.657 -7.80386 273.925 -10.258C274.25 -14.8202 274.341 -19.3951 274.194 -23.9615C274.103 -27.4155 274.064 -29.134 273.977 -32.5361Z" fill="#FED33D"></path><path d="M319.349 46.8669C317.207 47.1612 315.021 46.7456 313.134 45.6852C311.251 44.6204 309.762 42.9711 308.905 40.9801C306.884 36.7037 305.966 30.2069 305.953 21.8791C305.473 -7.56248 302.542 -36.9133 297.188 -65.8658C296.275 -70.2981 297.37 -73.2932 300.019 -74.5268C302.668 -75.7647 305.698 -75.0246 309.567 -72.5402C316.371 -68.1339 323.578 -60.4163 331.841 -51.5648C341.762 -41.0599 350.791 -29.2044 356.729 -16.2626C361.378 -6.07357 362.711 9.66449 358.586 20.2993C354.461 30.9341 346.614 40.9195 334.148 44.1788C329.309 45.5206 324.353 46.4211 319.349 46.8669ZM332.365 -21.0282C331.382 -24.9886 330.131 -28.8754 328.621 -32.667C327.729 -34.7793 326.941 -35.9005 326.279 -36.0303C325.868 -36.1039 325.591 -35.9004 325.422 -35.4026C325.794 -34.3855 326.279 -33.0219 326.889 -31.3036C327.5 -29.5852 328.608 -25.9537 329.997 -20.2359C330.543 -17.9592 330.811 -16.8123 331.27 -14.4923C332.148 -10.4669 332.659 -7.48888 332.902 -5.58006C333.14 -3.66692 333.334 -2.07853 333.486 -0.728081C333.577 0.0120773 333.663 0.752327 333.741 1.48815C333.897 1.73487 334.114 1.93814 334.369 2.08098C334.624 2.22382 334.914 2.30173 335.204 2.30606C335.983 2.22816 336.325 1.02922 336.226 -1.23452C335.862 -5.35946 335.178 -9.4455 334.174 -13.4622C333.525 -16.4661 333.153 -18.0329 332.365 -21.0282Z" fill="#FED33D"></path></g><defs><filter id="filter0_ddddd_14239_16561" x="247.921" y="-323.798" width="824.031" height="686.234" filterUnits="userSpaceOnUse" color-interpolation-filters="sRGB"><feFlood flood-opacity="0" result="BackgroundImageFix"></feFlood><feColorMatrix in="SourceAlpha" type="matrix" values="0 0 0 0 0 0 0 0 0 0 0 0 0 0 0 0 0 0 127 0" result="hardAlpha"></feColorMatrix><feOffset dx="16.8117" dy="1.31901"></feOffset><feGaussianBlur stdDeviation="84.0585"></feGaussianBlur><feColorMatrix type="matrix" values="0 0 0 0 0 0 0 0 0 0 0 0 0 0 0 0 0 0 0.1 0"></feColorMatrix><feBlend mode="normal" in2="BackgroundImageFix" result="effect1_dropShadow_14239_16561"></feBlend><feColorMatrix in="SourceAlpha" type="matrix" values="0 0 0 0 0 0 0 0 0 0 0 0 0 0 0 0 0 0 127 0" result="hardAlpha"></feColorMatrix><feOffset dx="4.28677" dy="5.60578"></feOffset><feGaussianBlur stdDeviation="3.46239"></feGaussianBlur><feColorMatrix type="matrix" values="0 0 0 0 0 0 0 0 0 0 0 0 0 0 0 0 0 0 0.09 0"></feColorMatrix><feBlend mode="normal" in2="effect1_dropShadow_14239_16561" result="effect2_dropShadow_14239_16561"></feBlend><feColorMatrix in="SourceAlpha" type="matrix" values="0 0 0 0 0 0 0 0 0 0 0 0 0 0 0 0 0 0 127 0" result="hardAlpha"></feColorMatrix><feOffset dx="9.23304" dy="12.5306"></feOffset><feGaussianBlur stdDeviation="4.61652"></feGaussianBlur><feColorMatrix type="matrix" values="0 0 0 0 0 0 0 0 0 0 0 0 0 0 0 0 0 0 0.05 0"></feColorMatrix><feBlend mode="normal" in2="effect2_dropShadow_14239_16561" result="effect3_dropShadow_14239_16561"></feBlend><feColorMatrix in="SourceAlpha" type="matrix" values="0 0 0 0 0 0 0 0 0 0 0 0 0 0 0 0 0 0 127 0" result="hardAlpha"></feColorMatrix><feOffset dx="16.4876" dy="22.0934"></feOffset><feGaussianBlur stdDeviation="21.0146"></feGaussianBlur><feColorMatrix type="matrix" values="0 0 0 0 0 0 0 0 0 0 0 0 0 0 0 0 0 0 0.05 0"></feColorMatrix><feBlend mode="normal" in2="effect3_dropShadow_14239_16561" result="effect4_dropShadow_14239_16561"></feBlend><feColorMatrix in="SourceAlpha" type="matrix" values="0 0 0 0 0 0 0 0 0 0 0 0 0 0 0 0 0 0 127 0" result="hardAlpha"></feColorMatrix><feOffset dx="25.7206" dy="34.6239"></feOffset><feGaussianBlur stdDeviation="21.0146"></feGaussianBlur><feColorMatrix type="matrix" values="0 0 0 0 0 0 0 0 0 0 0 0 0 0 0 0 0 0 0.03 0"></feColorMatrix><feBlend mode="normal" in2="effect4_dropShadow_14239_16561" result="effect5_dropShadow_14239_16561"></feBlend><feBlend mode="normal" in="SourceGraphic" in2="effect5_dropShadow_14239_16561" result="shape"></feBlend></filter><filter id="filter1_ddddd_14239_16561" x="721.201" y="-268.637" width="650.571" height="608.047" filterUnits="userSpaceOnUse" color-interpolation-filters="sRGB"><feFlood flood-opacity="0" result="BackgroundImageFix"></feFlood><feColorMatrix in="SourceAlpha" type="matrix" values="0 0 0 0 0 0 0 0 0 0 0 0 0 0 0 0 0 0 127 0" result="hardAlpha"></feColorMatrix><feOffset dx="11.4892" dy="0.901413"></feOffset><feGaussianBlur stdDeviation="57.4459"></feGaussianBlur><feColorMatrix type="matrix" values="0 0 0 0 0 0 0 0 0 0 0 0 0 0 0 0 0 0 0.1 0"></feColorMatrix><feBlend mode="normal" in2="BackgroundImageFix" result="effect1_dropShadow_14239_16561"></feBlend><feColorMatrix in="SourceAlpha" type="matrix" values="0 0 0 0 0 0 0 0 0 0 0 0 0 0 0 0 0 0 127 0" result="hardAlpha"></feColorMatrix><feOffset dx="2.9296" dy="3.83101"></feOffset><feGaussianBlur stdDeviation="2.36621"></feGaussianBlur><feColorMatrix type="matrix" values="0 0 0 0 0 0 0 0 0 0 0 0 0 0 0 0 0 0 0.09 0"></feColorMatrix><feBlend mode="normal" in2="effect1_dropShadow_14239_16561" result="effect2_dropShadow_14239_16561"></feBlend><feColorMatrix in="SourceAlpha" type="matrix" values="0 0 0 0 0 0 0 0 0 0 0 0 0 0 0 0 0 0 127 0" result="hardAlpha"></feColorMatrix><feOffset dx="6.30992" dy="8.56346"></feOffset><feGaussianBlur stdDeviation="3.15495"></feGaussianBlur><feColorMatrix type="matrix" values="0 0 0 0 0 0 0 0 0 0 0 0 0 0 0 0 0 0 0.05 0"></feColorMatrix><feBlend mode="normal" in2="effect2_dropShadow_14239_16561" result="effect3_dropShadow_14239_16561"></feBlend><feColorMatrix in="SourceAlpha" type="matrix" values="0 0 0 0 0 0 0 0 0 0 0 0 0 0 0 0 0 0 127 0" result="hardAlpha"></feColorMatrix><feOffset dx="11.2677" dy="15.0987"></feOffset><feGaussianBlur stdDeviation="14.3615"></feGaussianBlur><feColorMatrix type="matrix" values="0 0 0 0 0 0 0 0 0 0 0 0 0 0 0 0 0 0 0.05 0"></feColorMatrix><feBlend mode="normal" in2="effect3_dropShadow_14239_16561" result="effect4_dropShadow_14239_16561"></feBlend><feColorMatrix in="SourceAlpha" type="matrix" values="0 0 0 0 0 0 0 0 0 0 0 0 0 0 0 0 0 0 127 0" result="hardAlpha"></feColorMatrix><feOffset dx="17.5776" dy="23.6621"></feOffset><feGaussianBlur stdDeviation="14.3615"></feGaussianBlur><feColorMatrix type="matrix" values="0 0 0 0 0 0 0 0 0 0 0 0 0 0 0 0 0 0 0.03 0"></feColorMatrix><feBlend mode="normal" in2="effect4_dropShadow_14239_16561" result="effect5_dropShadow_14239_16561"></feBlend><feBlend mode="normal" in="SourceGraphic" in2="effect5_dropShadow_14239_16561" result="shape"></feBlend></filter><filter id="filter2_ddd_14239_16561" x="333.945" y="-523.734" width="646.054" height="603.017" filterUnits="userSpaceOnUse" color-interpolation-filters="sRGB"><feFlood flood-opacity="0" result="BackgroundImageFix"></feFlood><feColorMatrix in="SourceAlpha" type="matrix" values="0 0 0 0 0 0 0 0 0 0 0 0 0 0 0 0 0 0 127 0" result="hardAlpha"></feColorMatrix><feOffset dx="11.3149" dy="0.88774"></feOffset><feGaussianBlur stdDeviation="56.5745"></feGaussianBlur><feColorMatrix type="matrix" values="0 0 0 0 0 0 0 0 0 0 0 0 0 0 0 0 0 0 0.1 0"></feColorMatrix><feBlend mode="normal" in2="BackgroundImageFix" result="effect1_dropShadow_14239_16561"></feBlend><feColorMatrix in="SourceAlpha" type="matrix" values="0 0 0 0 0 0 0 0 0 0 0 0 0 0 0 0 0 0 127 0" result="hardAlpha"></feColorMatrix><feOffset dx="11.0968" dy="14.8697"></feOffset><feGaussianBlur stdDeviation="14.1436"></feGaussianBlur><feColorMatrix type="matrix" values="0 0 0 0 0 0 0 0 0 0 0 0 0 0 0 0 0 0 0.05 0"></feColorMatrix><feBlend mode="normal" in2="effect1_dropShadow_14239_16561" result="effect2_dropShadow_14239_16561"></feBlend><feColorMatrix in="SourceAlpha" type="matrix" values="0 0 0 0 0 0 0 0 0 0 0 0 0 0 0 0 0 0 127 0" result="hardAlpha"></feColorMatrix><feOffset dx="17.3109" dy="23.3032"></feOffset><feGaussianBlur stdDeviation="14.1436"></feGaussianBlur><feColorMatrix type="matrix" values="0 0 0 0 0 0 0 0 0 0 0 0 0 0 0 0 0 0 0.03 0"></feColorMatrix><feBlend mode="normal" in2="effect2_dropShadow_14239_16561" result="effect3_dropShadow_14239_16561"></feBlend><feBlend mode="normal" in="SourceGraphic" in2="effect3_dropShadow_14239_16561" result="shape"></feBlend></filter><filter id="filter3_ddd_14239_16561" x="679.042" y="-490.708" width="731.119" height="595.195" filterUnits="userSpaceOnUse" color-interpolation-filters="sRGB"><feFlood flood-opacity="0" result="BackgroundImageFix"></feFlood><feColorMatrix in="SourceAlpha" type="matrix" values="0 0 0 0 0 0 0 0 0 0 0 0 0 0 0 0 0 0 127 0" result="hardAlpha"></feColorMatrix><feOffset dx="12.4978" dy="0.980545"></feOffset><feGaussianBlur stdDeviation="62.4888"></feGaussianBlur><feColorMatrix type="matrix" values="0 0 0 0 0 0 0 0 0 0 0 0 0 0 0 0 0 0 0.1 0"></feColorMatrix><feBlend mode="normal" in2="BackgroundImageFix" result="effect1_dropShadow_14239_16561"></feBlend><feColorMatrix in="SourceAlpha" type="matrix" values="0 0 0 0 0 0 0 0 0 0 0 0 0 0 0 0 0 0 127 0" result="hardAlpha"></feColorMatrix><feOffset dx="12.2568" dy="16.4241"></feOffset><feGaussianBlur stdDeviation="15.6222"></feGaussianBlur><feColorMatrix type="matrix" values="0 0 0 0 0 0 0 0 0 0 0 0 0 0 0 0 0 0 0.05 0"></feColorMatrix><feBlend mode="normal" in2="effect1_dropShadow_14239_16561" result="effect2_dropShadow_14239_16561"></feBlend><feColorMatrix in="SourceAlpha" type="matrix" values="0 0 0 0 0 0 0 0 0 0 0 0 0 0 0 0 0 0 127 0" result="hardAlpha"></feColorMatrix><feOffset dx="19.1206" dy="25.7393"></feOffset><feGaussianBlur stdDeviation="15.6222"></feGaussianBlur><feColorMatrix type="matrix" values="0 0 0 0 0 0 0 0 0 0 0 0 0 0 0 0 0 0 0.03 0"></feColorMatrix><feBlend mode="normal" in2="effect2_dropShadow_14239_16561" result="effect3_dropShadow_14239_16561"></feBlend><feBlend mode="normal" in="SourceGraphic" in2="effect3_dropShadow_14239_16561" result="shape"></feBlend></filter><filter id="filter4_d_14239_16561" x="0.562224" y="-481.925" width="500.945" height="500.945" filterUnits="userSpaceOnUse" color-interpolation-filters="sRGB"><feFlood flood-opacity="0" result="BackgroundImageFix"></feFlood><feColorMatrix in="SourceAlpha" type="matrix" values="0 0 0 0 0 0 0 0 0 0 0 0 0 0 0 0 0 0 127 0" result="hardAlpha"></feColorMatrix><feOffset dx="9.08922" dy="0.713119"></feOffset><feGaussianBlur stdDeviation="45.4461"></feGaussianBlur><feColorMatrix type="matrix" values="0 0 0 0 0 0 0 0 0 0 0 0 0 0 0 0 0 0 0.1 0"></feColorMatrix><feBlend mode="normal" in2="BackgroundImageFix" result="effect1_dropShadow_14239_16561"></feBlend><feBlend mode="normal" in="SourceGraphic" in2="effect1_dropShadow_14239_16561" result="shape"></feBlend></filter><filter id="filter5_ddddd_14239_16561" x="9.65956" y="-207.545" width="480.447" height="480.451" filterUnits="userSpaceOnUse" color-interpolation-filters="sRGB"><feFlood flood-opacity="0" result="BackgroundImageFix"></feFlood><feColorMatrix in="SourceAlpha" type="matrix" values="0 0 0 0 0 0 0 0 0 0 0 0 0 0 0 0 0 0 127 0" result="hardAlpha"></feColorMatrix><feOffset dx="8.65675" dy="0.679187"></feOffset><feGaussianBlur stdDeviation="43.2837"></feGaussianBlur><feColorMatrix type="matrix" values="0 0 0 0 0 0 0 0 0 0 0 0 0 0 0 0 0 0 0.1 0"></feColorMatrix><feBlend mode="normal" in2="BackgroundImageFix" result="effect1_dropShadow_14239_16561"></feBlend><feColorMatrix in="SourceAlpha" type="matrix" values="0 0 0 0 0 0 0 0 0 0 0 0 0 0 0 0 0 0 127 0" result="hardAlpha"></feColorMatrix><feOffset dx="2.20736" dy="2.88655"></feOffset><feGaussianBlur stdDeviation="1.78287"></feGaussianBlur><feColorMatrix type="matrix" values="0 0 0 0 0 0 0 0 0 0 0 0 0 0 0 0 0 0 0.09 0"></feColorMatrix><feBlend mode="normal" in2="effect1_dropShadow_14239_16561" result="effect2_dropShadow_14239_16561"></feBlend><feColorMatrix in="SourceAlpha" type="matrix" values="0 0 0 0 0 0 0 0 0 0 0 0 0 0 0 0 0 0 127 0" result="hardAlpha"></feColorMatrix><feOffset dx="4.75433" dy="6.45231"></feOffset><feGaussianBlur stdDeviation="2.37716"></feGaussianBlur><feColorMatrix type="matrix" values="0 0 0 0 0 0 0 0 0 0 0 0 0 0 0 0 0 0 0.05 0"></feColorMatrix><feBlend mode="normal" in2="effect2_dropShadow_14239_16561" result="effect3_dropShadow_14239_16561"></feBlend><feColorMatrix in="SourceAlpha" type="matrix" values="0 0 0 0 0 0 0 0 0 0 0 0 0 0 0 0 0 0 127 0" result="hardAlpha"></feColorMatrix><feOffset dx="8.48985" dy="11.3764"></feOffset><feGaussianBlur stdDeviation="10.8209"></feGaussianBlur><feColorMatrix type="matrix" values="0 0 0 0 0 0 0 0 0 0 0 0 0 0 0 0 0 0 0.05 0"></feColorMatrix><feBlend mode="normal" in2="effect3_dropShadow_14239_16561" result="effect4_dropShadow_14239_16561"></feBlend><feColorMatrix in="SourceAlpha" type="matrix" values="0 0 0 0 0 0 0 0 0 0 0 0 0 0 0 0 0 0 127 0" result="hardAlpha"></feColorMatrix><feOffset dx="13.2442" dy="17.8287"></feOffset><feGaussianBlur stdDeviation="10.8209"></feGaussianBlur><feColorMatrix type="matrix" values="0 0 0 0 0 0 0 0 0 0 0 0 0 0 0 0 0 0 0.03 0"></feColorMatrix><feBlend mode="normal" in2="effect4_dropShadow_14239_16561" result="effect5_dropShadow_14239_16561"></feBlend><feBlend mode="normal" in="SourceGraphic" in2="effect5_dropShadow_14239_16561" result="shape"></feBlend></filter></defs></svg>