<svg width="25" height="24" viewBox="0 0 25 24" fill="none" xmlns="http://www.w3.org/2000/svg">
<path d="M2.20091 9.25133C1.60412 9.09142 0.985051 9.44527 0.882652 10.0546C0.524978 12.1828 0.759914 14.3764 1.5726 16.3912C2.52527 18.753 4.22021 20.741 6.40169 22.0552C8.58317 23.3693 11.1329 23.9384 13.6661 23.6765C16.1994 23.4147 18.5787 22.3361 20.4453 20.6035C22.3118 18.8708 23.5642 16.5782 24.0136 14.0714C24.463 11.5647 24.085 8.97972 22.9366 6.70661C21.7882 4.43349 19.9317 2.59551 17.6472 1.46994C15.6984 0.50978 13.5283 0.112473 11.3793 0.310996C10.7641 0.367832 10.3652 0.958893 10.4804 1.56592C10.5955 2.17294 11.1813 2.56471 11.7977 2.5217C13.4672 2.40518 15.1452 2.73146 16.6583 3.47698C18.5074 4.38801 20.0101 5.87567 20.9396 7.71553C21.8691 9.55539 22.1751 11.6476 21.8113 13.6766C21.4476 15.7056 20.4339 17.5613 18.9231 18.9636C17.4123 20.366 15.4865 21.239 13.4361 21.451C11.3856 21.6629 9.32192 21.2023 7.55623 20.1386C5.79054 19.075 4.41866 17.4659 3.64757 15.5542C3.01656 13.9899 2.81588 12.2923 3.05615 10.636C3.14485 10.0246 2.7977 9.41124 2.20091 9.25133Z" fill="#4EEB77"/>
<path d="M24.1978 12C24.1978 18.4831 18.9422 23.7388 12.4591 23.7388C5.97596 23.7388 0.720337 18.4831 0.720337 12C0.720337 5.51687 5.97596 0.261246 12.4591 0.261246C18.9422 0.261246 24.1978 5.51687 24.1978 12ZM2.95775 12C2.95775 17.2474 7.21164 21.5013 12.4591 21.5013C17.7065 21.5013 21.9604 17.2474 21.9604 12C21.9604 6.75255 17.7065 2.49866 12.4591 2.49866C7.21164 2.49866 2.95775 6.75255 2.95775 12Z" fill="#046A33" fill-opacity="0.4"/>
</svg>
