<svg width="49" height="48" viewBox="0 0 49 48" fill="none" xmlns="http://www.w3.org/2000/svg">
<path d="M4.0175 18.3791C2.7971 18.0521 1.53113 18.7757 1.32173 20.0217C0.590308 24.3738 1.07074 28.8596 2.73263 32.9797C4.6808 37.8096 8.14684 41.8748 12.6079 44.5622C17.0689 47.2496 22.2828 48.4134 27.4632 47.8779C32.6435 47.3424 37.5092 45.1367 41.3262 41.5936C45.1431 38.0505 47.7043 33.3622 48.6233 28.236C49.5423 23.1097 48.7693 17.8237 46.4208 13.1753C44.0724 8.52691 40.276 4.76834 35.6042 2.46662C31.6191 0.503142 27.1813 -0.309329 22.7869 0.09664C21.5288 0.212866 20.7131 1.42155 20.9485 2.66289C21.1839 3.90422 22.3819 4.70536 23.6423 4.6174C27.0565 4.37913 30.4878 5.04636 33.5821 6.57089C37.3634 8.4339 40.4362 11.4761 42.337 15.2385C44.2379 19.0009 44.8635 23.2794 44.1197 27.4286C43.3759 31.5777 41.3029 35.3725 38.2134 38.2402C35.124 41.108 31.1857 42.8933 26.9927 43.3267C22.7998 43.7602 18.5796 42.8182 14.9688 40.6431C11.3581 38.4679 8.55268 35.1775 6.97583 31.2682C5.68546 28.0692 5.27508 24.5977 5.76642 21.2107C5.9478 19.9604 5.23791 18.7061 4.0175 18.3791Z" fill="#4EEB77"/>
<path d="M49 24C49 37.2576 38.2525 48.0051 24.9949 48.0051C11.7373 48.0051 0.989807 37.2576 0.989807 24C0.989807 10.7423 11.7373 -0.00509644 24.9949 -0.00509644C38.2525 -0.00509644 49 10.7423 49 24ZM5.56519 24C5.56519 34.7307 14.2642 43.4297 24.9949 43.4297C35.7256 43.4297 44.4246 34.7307 44.4246 24C44.4246 13.2693 35.7256 4.57029 24.9949 4.57029C14.2642 4.57029 5.56519 13.2693 5.56519 24Z" fill="#046A33" fill-opacity="0.4"/>
<path d="M20.0104 29.7109C22.5104 29.7109 24.2761 28.3672 24.2761 26.4531C24.2761 25.0234 23.2682 23.8672 21.7682 23.5547V23.5156C23.0182 23.1562 23.8151 22.1875 23.8151 20.9922C23.8151 19.2656 22.2292 18.0156 20.0104 18.0156C17.7995 18.0156 16.1979 19.2734 16.1979 20.9843C16.1979 22.1953 17.0026 23.1718 18.2526 23.5156V23.5547C16.7604 23.8672 15.7448 25.0156 15.7448 26.4531C15.7448 28.3593 17.4948 29.7109 20.0104 29.7109ZM20.0104 28.3047C18.5729 28.3047 17.5495 27.4765 17.5495 26.3281C17.5495 25.1718 18.5729 24.3359 20.0104 24.3359C21.4479 24.3359 22.4636 25.164 22.4636 26.3281C22.4636 27.4765 21.4479 28.3047 20.0104 28.3047ZM20.0104 22.9297C18.7839 22.9297 17.9323 22.1953 17.9323 21.1718C17.9323 20.1406 18.7839 19.4062 20.0104 19.4062C21.2292 19.4062 22.0886 20.1406 22.0886 21.1718C22.0886 22.1953 21.2214 22.9297 20.0104 22.9297ZM29.9401 29.7109C32.6432 29.7109 34.2292 27.4375 34.2292 23.8437C34.2292 20.2734 32.6354 18.0156 29.9401 18.0156C27.2526 18.0156 25.6354 20.2812 25.6354 23.8515C25.6354 27.4453 27.237 29.7109 29.9401 29.7109ZM29.9401 28.2422C28.3307 28.2422 27.4089 26.5703 27.4089 23.8515C27.4089 21.1718 28.3464 19.4843 29.9401 19.4843C31.5339 19.4843 32.4636 21.164 32.4636 23.8515C32.4636 26.5781 31.5495 28.2422 29.9401 28.2422Z" fill="#4EEB77"/>
</svg>
